<?xml version="1.0" standalone="no"?>
<!DOCTYPE svg PUBLIC "-//W3C//DTD SVG 20010904//EN"
 "http://www.w3.org/TR/2001/REC-SVG-20010904/DTD/svg10.dtd">
<svg version="1.0" xmlns="http://www.w3.org/2000/svg"
 width="128.000000pt" height="128.000000pt" viewBox="0 0 128.000000 128.000000"
 preserveAspectRatio="xMidYMid meet">
<metadata>
Created by potrace 1.14, written by Peter Selinger 2001-2017
</metadata>
<g transform="translate(0.000000,128.000000) scale(0.100000,-0.100000)"
fill="#000000" stroke="none">
<path d="M938 894 c-25 -40 -30 -43 -58 -38 -24 5 -36 1 -55 -16 -14 -13 -25
-33 -25 -45 0 -49 -50 -60 -76 -16 -34 58 -130 59 -173 1 -19 -27 -24 -29 -36
-16 -8 8 -15 21 -15 30 0 32 -23 66 -45 66 -26 0 -55 29 -55 54 0 10 -6 16
-12 13 -7 -2 -13 -17 -13 -34 l0 -30 -55 4 c-30 2 -64 4 -75 4 -10 0 -33 11
-51 24 -17 13 -44 25 -59 27 -26 3 -30 -1 -42 -41 -8 -29 -9 -49 -3 -61 6 -10
7 -26 4 -34 -4 -10 0 -18 10 -22 9 -3 16 -14 16 -24 0 -10 7 -20 15 -24 8 -3
15 -12 15 -21 0 -8 5 -15 10 -15 6 0 10 -7 10 -15 0 -8 4 -15 9 -15 5 0 20
-17 32 -37 40 -65 113 -123 155 -123 11 0 29 -9 39 -20 10 -11 24 -20 32 -20
7 0 13 -4 13 -10 0 -5 9 -10 19 -10 10 0 21 -7 25 -15 3 -8 16 -15 28 -15 13
0 34 -7 46 -16 12 -8 22 -13 22 -9 0 3 11 -2 25 -11 23 -15 25 -15 48 10 28
30 39 33 30 10 -5 -14 -3 -14 16 -3 11 8 21 17 21 21 0 4 11 3 24 -2 21 -7 26
-6 31 10 4 11 13 20 21 20 8 0 14 7 14 15 0 8 8 15 18 15 18 0 136 41 168 58
28 15 68 60 70 80 2 9 8 18 13 20 6 2 11 10 11 17 0 7 9 15 21 18 12 3 18 10
15 15 -3 5 4 12 15 15 12 3 18 10 15 16 -4 5 2 15 13 21 11 6 18 16 15 24 -3
7 2 16 10 19 9 4 16 15 16 26 0 11 5 23 10 26 15 9 12 25 -5 25 -17 0 -20 16
-5 25 16 10 12 28 -5 22 -12 -5 -12 -2 -3 19 17 36 1 42 -28 11 -30 -32 -44
-34 -44 -7 0 27 -8 25 -32 -6 -16 -19 -27 -25 -46 -21 -15 3 -32 -1 -41 -10
-13 -14 -16 -14 -21 3 -6 17 -7 17 -18 -1 -6 -11 -14 -16 -18 -12 -4 4 -2 13
4 19 13 13 16 44 5 51 -5 3 -20 -15 -35 -39z m-521 -99 c11 -8 33 -35 48 -61
17 -29 32 -44 41 -40 17 7 25 -6 14 -23 -6 -11 -26 -3 -88 35 -88 53 -117 90
-79 97 39 8 42 7 64 -8z m493 -9 c0 -23 -36 -79 -60 -91 -64 -33 -67 -9 -8 52
35 36 68 55 68 39z"/>
</g>
</svg>
