<?xml version="1.0" standalone="no"?>
<!DOCTYPE svg PUBLIC "-//W3C//DTD SVG 20010904//EN"
 "http://www.w3.org/TR/2001/REC-SVG-20010904/DTD/svg10.dtd">
<svg version="1.0" xmlns="http://www.w3.org/2000/svg"
 width="260.000000pt" height="260.000000pt" viewBox="0 0 260.000000 260.000000"
 preserveAspectRatio="xMidYMid meet">
<metadata>
Created by potrace 1.14, written by Peter Selinger 2001-2017
</metadata>
<g transform="translate(0.000000,260.000000) scale(0.100000,-0.100000)"
fill="#000000" stroke="none">
<path d="M1354 2582 c3 -6 2 -13 -4 -17 -6 -4 -8 -10 -5 -15 3 -5 1 -11 -5
-15 -5 -3 -10 -1 -10 4 0 6 -7 11 -16 11 -9 0 -12 5 -8 13 4 6 4 9 -1 5 -4 -4
-15 -2 -24 5 -14 10 -14 10 -4 -4 7 -9 9 -20 5 -24 -4 -5 -1 -5 6 -1 18 10 15
1 -5 -15 -10 -9 -14 -9 -10 -2 5 7 -2 17 -15 24 -21 11 -22 11 -9 -5 14 -16
13 -17 -17 -13 -18 3 -30 1 -26 -4 3 -5 1 -9 -5 -9 -5 0 -15 8 -20 18 -9 15
-10 14 -11 -8 0 -20 -2 -22 -10 -10 -8 13 -11 12 -25 -5 -12 -16 -14 -17 -9
-2 3 9 1 17 -5 17 -6 0 -11 -7 -11 -16 0 -8 -5 -12 -11 -8 -8 4 -9 0 -4 -15 5
-15 2 -21 -10 -21 -9 0 -14 -4 -10 -10 3 -5 13 -7 23 -4 15 5 15 4 -1 -6 -9
-6 -15 -15 -12 -20 3 -5 1 -11 -5 -15 -6 -4 -7 -11 -4 -17 4 -7 2 -8 -5 -4 -6
4 -9 12 -6 17 4 5 1 9 -5 9 -6 0 -11 -12 -10 -27 3 -44 0 -49 -15 -29 -11 15
-15 16 -15 5 0 -8 5 -20 11 -26 8 -8 7 -13 -2 -18 -8 -5 -10 -4 -5 3 4 7 2 12
-3 12 -6 0 -11 -7 -11 -15 0 -12 -4 -13 -19 -5 -25 13 -41 13 -41 -1 0 -5 5
-7 10 -4 6 3 10 1 10 -4 0 -13 -10 -14 -28 -3 -8 5 -10 16 -5 27 6 17 5 18 -9
5 -9 -8 -13 -19 -10 -24 3 -5 0 -6 -6 -2 -6 4 -8 14 -5 24 5 14 3 15 -8 5 -16
-16 -29 -17 -29 -2 0 5 4 7 10 4 5 -3 7 0 4 9 -3 8 -13 14 -22 14 -9 0 -21 0
-27 2 -28 7 -36 0 -24 -21 6 -13 7 -19 1 -15 -6 3 -13 0 -15 -6 -4 -10 -6 -10
-6 0 -1 8 -6 10 -13 6 -10 -6 -10 -4 0 7 15 16 16 29 1 29 -5 0 -8 -4 -5 -9 9
-13 -41 -20 -56 -7 -11 9 -11 8 0 -4 18 -20 15 -29 -8 -23 -11 3 -28 -1 -37
-8 -15 -12 -16 -12 -10 4 3 9 2 17 -3 17 -6 0 -10 -7 -10 -15 0 -18 -16 -20
-23 -2 -3 6 -4 -5 -3 -27 2 -34 1 -36 -11 -20 -16 21 -17 11 -2 -17 9 -17 7
-21 -10 -26 -18 -5 -19 -8 -9 -21 11 -13 11 -14 -1 -7 -11 6 -13 4 -8 -9 4
-10 1 -19 -7 -22 -8 -3 -17 -13 -20 -21 -6 -14 -4 -14 11 -2 14 10 16 10 6 0
-6 -7 -10 -19 -9 -25 2 -6 1 -8 -1 -3 -8 13 -23 7 -23 -9 0 -8 -5 -12 -10 -9
-6 4 -7 11 -4 17 4 7 2 8 -4 4 -8 -5 -9 -13 -2 -25 9 -19 -4 -41 -25 -41 -5 0
-3 5 5 11 12 9 12 10 -4 5 -10 -4 -26 -1 -35 6 -14 11 -14 11 -4 -2 8 -10 9
-21 3 -30 -8 -12 -10 -12 -10 4 0 10 -5 16 -12 13 -7 -3 -22 -8 -33 -12 -18
-6 -18 -5 -2 5 9 6 17 16 17 23 0 8 -4 7 -9 -2 -8 -13 -12 -13 -28 0 -16 12
-17 12 -7 -1 7 -9 8 -23 3 -35 -7 -19 -8 -19 -8 3 -1 12 -6 22 -12 22 -5 0 -7
-4 -4 -10 4 -6 -1 -7 -11 -3 -13 5 -15 3 -9 -8 7 -11 6 -12 -6 -3 -15 12 -46
11 -57 -2 -4 -4 0 -5 9 -2 9 4 16 1 16 -7 0 -7 -8 -10 -19 -7 -10 2 -18 -1
-18 -7 0 -7 4 -9 10 -6 6 3 7 -1 4 -10 -6 -14 -8 -14 -19 2 -8 10 -17 15 -21
10 -4 -4 -1 -7 6 -7 9 0 7 -5 -6 -15 -14 -11 -15 -14 -3 -9 10 3 19 1 23 -4 7
-13 -30 -8 -46 6 -12 9 -15 9 -15 -3 0 -8 4 -12 9 -9 4 3 8 0 8 -5 0 -6 -4
-11 -10 -11 -5 0 -10 -5 -10 -11 0 -5 5 -7 12 -3 7 4 8 3 4 -4 -4 -6 -14 -8
-22 -5 -14 5 -15 3 -6 -14 13 -23 7 -34 -13 -27 -14 6 -15 -19 -2 -32 14 -14
7 -26 -10 -19 -13 4 -12 1 4 -15 24 -22 32 -40 10 -22 -10 8 -13 6 -13 -8 0
-10 4 -16 8 -14 4 3 8 1 8 -5 0 -5 -6 -12 -12 -14 -10 -4 -10 -6 0 -6 6 -1 12
-6 12 -12 0 -5 -4 -8 -9 -5 -5 3 -8 -2 -7 -12 0 -9 8 -20 16 -24 12 -5 11 -7
-3 -7 -10 -1 -15 -6 -12 -11 4 -6 12 -8 18 -4 7 3 3 -2 -7 -10 -11 -9 -14 -16
-8 -16 10 0 10 -5 1 -21 -8 -15 -8 -19 0 -15 6 4 11 4 12 -1 0 -4 2 -16 4 -25
2 -10 -2 -15 -10 -12 -14 6 -14 -7 0 -39 4 -10 2 -23 -5 -32 -7 -8 -9 -16 -4
-16 5 -1 14 -2 19 -3 6 0 11 -5 12 -10 1 -5 7 -13 15 -18 10 -8 10 -9 -2 -5
-8 2 -14 10 -12 16 1 7 -2 10 -7 6 -12 -7 7 -55 21 -55 4 0 8 -5 8 -11 0 -5
-4 -8 -8 -5 -5 3 -9 -1 -9 -9 0 -8 4 -12 9 -9 4 3 8 1 8 -5 0 -5 -4 -13 -10
-16 -5 -3 -10 -12 -9 -18 0 -9 2 -9 6 1 7 18 19 14 19 -7 0 -11 -5 -17 -11
-13 -5 3 -2 -7 9 -22 13 -20 14 -27 5 -24 -9 4 -14 -2 -14 -17 0 -15 4 -20 10
-15 7 6 16 1 23 -11 7 -11 8 -19 2 -19 -5 0 -10 5 -10 11 0 5 -5 7 -11 3 -8
-5 -8 -9 1 -14 6 -4 11 -10 11 -14 -3 -20 0 -26 10 -20 8 4 7 9 -2 16 -12 8
-12 9 0 6 8 -2 15 -16 15 -30 1 -15 -1 -25 -5 -22 -4 2 -9 -3 -12 -10 -4 -10
0 -14 12 -11 21 4 25 -29 5 -46 -13 -10 -12 -14 2 -30 10 -11 12 -19 6 -19 -7
0 -12 -5 -12 -11 0 -5 4 -7 10 -4 5 3 10 2 10 -4 0 -5 -6 -12 -12 -14 -8 -3
-6 -6 5 -6 9 -1 17 -6 17 -12 0 -5 -4 -8 -9 -5 -10 7 -9 -20 2 -30 4 -4 1 -14
-6 -22 -10 -13 -9 -14 1 -8 9 5 15 1 19 -13 3 -12 9 -21 14 -21 5 0 9 -5 9
-10 0 -7 -8 -7 -23 1 -22 12 -22 12 -3 -9 10 -12 23 -19 28 -16 6 4 5 -3 -1
-14 -14 -27 -14 -35 1 -26 10 6 10 5 1 -7 -10 -12 -9 -21 2 -42 7 -15 10 -29
6 -31 -13 -9 -5 -70 10 -74 11 -3 11 -1 -1 8 -10 8 -11 10 -2 8 8 -2 13 -7 12
-12 -1 -5 4 -13 12 -18 9 -6 5 -7 -12 -3 -19 5 -21 4 -10 -4 18 -12 20 -31 6
-49 -5 -7 -5 -12 0 -11 5 1 16 1 24 0 13 -1 13 -2 0 -11 -13 -8 -12 -10 3 -10
10 0 16 -4 13 -9 -3 -5 1 -12 10 -15 10 -4 13 -2 8 6 -5 8 -2 9 12 3 10 -4 26
-8 34 -9 9 -1 20 -5 27 -9 6 -4 17 1 24 10 12 14 12 16 -1 8 -9 -5 -12 -4 -7
1 10 11 58 14 51 2 -3 -4 -9 -6 -13 -4 -4 3 -8 -1 -8 -9 0 -13 2 -13 16 -1 9
8 21 15 26 16 6 1 12 4 15 7 3 4 -1 3 -7 -1 -7 -4 -13 -2 -13 3 0 6 5 11 11
11 5 0 7 6 3 13 -4 6 3 2 15 -11 12 -12 27 -22 34 -21 9 0 9 2 -1 6 -7 2 -17
14 -23 26 -9 18 -9 20 2 10 18 -17 29 -16 29 3 0 9 -5 12 -12 8 -7 -4 -8 -3
-4 5 6 9 11 9 22 0 8 -6 14 -8 14 -3 0 5 5 2 11 -6 8 -12 9 -11 7 5 -2 15 2
19 17 18 11 -1 14 0 7 3 -10 5 -10 9 -1 20 6 8 8 14 4 14 -4 0 -14 -8 -22 -17
-14 -17 -14 -17 -9 0 3 10 6 23 6 28 0 6 5 7 11 3 8 -4 7 0 -1 15 -6 12 -15
19 -19 16 -12 -7 -34 22 -26 35 3 5 12 10 20 10 8 0 17 4 20 10 3 5 0 7 -9 4
-8 -3 -23 -1 -33 5 -10 6 -13 11 -7 11 15 0 24 49 11 57 -6 4 -7 1 -2 -7 5 -9
4 -11 -4 -6 -9 6 -9 11 0 22 6 8 8 14 3 14 -5 0 -2 5 6 10 13 8 12 10 -3 10
-15 0 -16 3 -7 20 8 15 8 20 -2 20 -9 0 -9 3 0 12 17 17 15 28 -5 28 -15 0
-16 2 -3 10 13 8 8 14 -11 12 -3 -1 -6 5 -6 12 0 7 6 13 13 13 7 0 10 -5 7
-10 -3 -6 -1 -7 5 -3 18 11 14 26 -5 26 -16 1 -16 2 1 15 14 11 17 18 9 26 -8
8 -13 7 -18 -2 -6 -8 -4 -10 5 -4 9 5 11 4 6 -4 -4 -6 -12 -9 -17 -5 -5 3 -7
10 -3 15 3 6 -2 17 -12 25 -18 14 -18 14 3 5 29 -15 33 -14 26 6 -5 12 -3 14
8 8 12 -7 12 -5 1 6 -11 11 -14 12 -21 1 -7 -11 -10 -10 -14 3 -4 9 -3 13 3
10 6 -3 10 -1 10 5 0 7 6 8 18 2 20 -10 32 -10 48 0 7 5 9 -4 6 -24 -3 -23 -1
-29 8 -23 9 6 10 3 1 -13 -6 -11 -16 -23 -23 -26 -7 -3 -2 -3 12 1 22 5 23 4
11 -11 -11 -13 -11 -16 0 -16 9 0 10 -3 4 -8 -15 -11 -17 -32 -2 -32 8 0 7 -4
-3 -10 -13 -9 -13 -10 0 -10 13 0 13 -1 0 -10 -10 -6 -11 -10 -2 -10 6 0 12
-11 12 -25 0 -14 -6 -25 -12 -26 -7 0 -4 -4 7 -9 11 -5 14 -9 8 -9 -7 -1 -13
-6 -13 -12 0 -5 5 -7 11 -3 7 4 10 1 7 -7 -3 -8 -11 -13 -17 -11 -7 1 -10 -2
-7 -7 4 -5 15 -8 26 -6 12 2 18 0 15 -6 -4 -5 -11 -7 -16 -4 -5 4 -9 1 -9 -5
0 -6 -4 -9 -9 -6 -11 7 -9 -14 4 -34 5 -8 10 -19 10 -25 0 -5 8 -9 16 -7 13 2
16 -7 15 -38 -1 -23 -7 -44 -14 -49 -11 -7 -10 -9 3 -14 11 -5 14 -3 9 6 -4 6
-3 9 1 4 13 -11 13 -47 1 -47 -6 0 -6 -4 1 -11 8 -8 8 -20 3 -35 -6 -15 -5
-26 1 -30 7 -4 6 -10 -1 -19 -7 -9 0 -23 30 -56 22 -24 40 -39 40 -34 0 6 5 3
10 -5 6 -9 10 -10 10 -3 0 7 10 10 26 7 14 -3 23 -1 20 4 -3 5 1 9 9 9 8 0 12
-4 9 -8 -12 -19 21 -20 37 -1 12 15 19 18 22 10 4 -10 6 -10 6 0 1 7 6 10 13
6 6 -4 8 -3 5 2 -3 5 8 17 24 27 17 9 27 11 23 5 -5 -7 -2 -9 9 -5 12 4 15 1
12 -14 -2 -11 0 -17 6 -14 5 4 7 11 4 16 -4 5 -1 9 5 9 6 0 8 5 4 12 -5 8 0 7
11 -2 17 -13 18 -13 13 1 -5 12 -1 15 17 11 16 -3 26 2 33 15 13 26 8 69 -9
65 -8 -2 -6 5 6 19 20 22 20 22 0 15 -11 -4 -16 -4 -12 0 4 4 2 13 -4 21 -6 7
-8 13 -3 13 5 0 2 5 -6 11 -13 9 -13 10 0 6 8 -2 14 -9 13 -15 -1 -5 4 -13 13
-16 11 -4 12 -2 5 13 -6 10 -7 21 -4 25 3 3 -1 6 -10 6 -12 0 -16 7 -13 23 2
12 -1 27 -6 34 -5 7 -5 14 2 18 5 3 10 11 10 16 0 6 -4 8 -8 5 -5 -3 -9 1 -9
9 0 18 9 19 23 5 7 -7 11 -6 11 4 0 8 -4 13 -8 11 -3 -3 -13 3 -20 12 -8 9 -9
14 -4 11 6 -3 10 5 10 18 0 13 -5 22 -10 20 -16 -6 -10 44 6 55 13 8 6 13 -13
10 -4 0 -5 5 -2 13 3 8 1 17 -5 20 -6 4 -8 13 -5 21 4 8 9 13 13 11 4 -3 6 7
5 21 0 13 -7 29 -15 34 -11 7 -11 9 0 9 7 0 11 6 8 14 -3 8 -1 17 6 20 7 2 5
5 -5 5 -11 1 -16 8 -13 21 2 11 -2 20 -8 20 -8 0 -8 3 1 9 8 4 13 11 13 15 -3
19 0 26 10 26 8 0 8 -5 -1 -15 -7 -9 -8 -15 -2 -15 5 0 12 7 16 15 7 19 -29
40 -40 23 -5 -7 -3 -8 6 -3 9 6 11 4 6 -4 -10 -15 -19 -7 -21 18 -1 13 5 17
23 15 22 -2 23 -1 7 16 -9 10 -14 23 -10 29 3 7 0 8 -10 5 -11 -5 -14 -2 -8
12 4 11 3 15 -5 10 -6 -3 -14 -1 -18 5 -4 7 -3 9 3 6 5 -4 10 7 10 23 0 17 -5
30 -11 30 -6 0 -5 4 3 9 8 6 10 14 5 22 -12 20 -14 40 -3 33 5 -3 7 -10 4 -15
-4 -5 -1 -9 4 -9 15 0 14 12 -6 40 -16 22 -16 23 3 17 18 -7 18 -6 1 7 -14 11
-15 15 -5 20 10 5 10 7 0 12 -6 3 -9 11 -5 17 11 18 12 36 2 43 -5 3 -9 10 -9
15 0 6 4 8 8 5 4 -2 8 6 8 19 0 16 -5 21 -15 18 -12 -3 -11 -1 2 7 19 12 24
35 5 24 -7 -4 -10 -3 -5 1 4 5 16 9 26 10 13 1 17 -3 13 -14 -5 -14 -4 -14 11
-2 15 12 17 12 11 -3 -4 -10 -1 -16 7 -16 7 0 5 -6 -7 -14 -16 -13 -17 -15 -3
-21 16 -6 21 -57 6 -71 -4 -5 -5 0 -2 11 5 16 5 17 -3 5 -12 -16 -6 -33 9 -25
5 4 9 2 9 -4 0 -5 -4 -12 -9 -16 -14 -8 -9 -44 6 -50 10 -3 11 0 3 15 -14 26
-13 33 4 18 8 -7 12 -16 9 -20 -2 -5 1 -8 8 -8 18 0 4 -11 -17 -14 -10 -2 -20
-9 -22 -17 -2 -8 0 -10 5 -4 10 13 43 16 43 4 0 -5 -7 -9 -15 -9 -8 0 -15 -5
-15 -11 0 -5 4 -8 8 -5 4 2 9 -4 9 -15 1 -10 -3 -19 -8 -19 -6 0 -7 5 -3 12 4
6 3 8 -4 4 -6 -3 -12 -1 -15 6 -2 7 -3 5 -2 -4 2 -10 -6 -19 -21 -22 -13 -4
-24 -11 -24 -17 0 -6 4 -7 10 -4 5 3 7 0 4 -8 -7 -19 12 -32 22 -16 4 7 3 9
-4 5 -7 -4 -10 1 -9 14 1 11 7 20 15 20 7 0 11 -4 8 -8 -3 -5 1 -9 9 -9 8 0
12 4 9 9 -3 4 -1 8 3 8 5 0 14 -9 21 -21 12 -19 11 -20 -8 -14 -21 7 -21 6 -4
-14 10 -11 22 -17 28 -14 6 4 5 -1 -3 -11 -17 -21 -22 -56 -8 -56 5 0 4 -7 -3
-15 -9 -11 -9 -15 -1 -15 9 0 9 -6 0 -22 -15 -27 -16 -24 13 -49 13 -11 17
-17 9 -13 -11 5 -13 1 -9 -20 4 -17 0 -29 -9 -35 -13 -7 -13 -9 1 -14 11 -5
15 -3 10 5 -4 7 -3 8 5 4 9 -6 9 -11 1 -21 -7 -8 -8 -20 -4 -27 6 -10 4 -11
-7 -3 -8 6 -6 2 4 -7 15 -14 16 -18 4 -18 -10 0 -13 -6 -10 -19 6 -22 29 -34
46 -25 7 3 -1 -4 -16 -16 -23 -19 -26 -25 -15 -38 11 -13 10 -15 -5 -9 -11 4
-16 3 -12 -4 4 -6 13 -8 20 -5 7 2 16 -2 19 -11 4 -11 2 -14 -9 -9 -8 3 -14 2
-14 -2 3 -20 -2 -25 -12 -12 -9 13 -10 13 -6 0 2 -8 8 -15 13 -15 22 -1 54
-27 47 -38 -4 -7 -9 -25 -9 -42 -1 -16 -3 -34 -4 -40 -5 -21 0 -36 11 -29 6 3
3 -6 -7 -22 -11 -15 -13 -25 -6 -21 11 7 16 -3 14 -25 -1 -3 5 -12 13 -18 8
-7 15 -18 15 -25 0 -8 5 -15 12 -17 8 -3 9 -6 1 -11 -6 -4 -16 6 -23 23 -7 17
-16 30 -21 30 -5 0 0 -15 10 -32 13 -24 24 -32 39 -30 12 2 22 -1 22 -5 0 -5
9 -9 20 -10 11 -1 20 2 20 8 0 5 5 9 11 9 5 0 7 -5 3 -12 -5 -7 -3 -8 7 -2 23
14 51 16 43 2 -4 -7 -3 -8 5 -4 6 4 9 11 6 16 -3 4 2 11 11 14 8 3 12 11 8 17
-4 7 -3 9 3 6 6 -4 9 -18 8 -32 -2 -14 1 -23 6 -19 5 3 7 9 4 13 -7 12 32 44
45 36 15 -9 1 -28 -16 -21 -8 3 -14 2 -14 -3 0 -5 9 -11 21 -14 12 -3 18 -3
15 0 -3 4 3 13 14 20 11 8 18 18 15 23 -3 5 0 12 6 16 8 4 9 3 5 -4 -4 -7 -1
-12 9 -12 9 0 14 4 11 8 -2 4 0 14 5 22 7 12 8 11 6 -5 -1 -11 -6 -25 -10 -32
-4 -6 -3 -15 3 -18 6 -4 10 -3 9 2 -4 20 2 24 18 12 15 -13 15 -12 4 9 -14 26
-4 29 16 5 8 -10 11 -12 7 -4 -5 11 -2 13 15 8 19 -5 20 -3 9 11 -10 13 -10
14 0 8 7 -4 20 -2 29 6 14 11 16 11 8 -1 -5 -10 -4 -12 3 -7 7 4 12 16 12 26
0 10 4 21 9 24 5 3 8 17 9 32 0 17 -3 22 -8 13 -5 -6 -6 -19 -3 -28 4 -13 3
-14 -5 -2 -7 9 -7 21 -2 31 6 11 5 21 -2 28 -8 8 -7 13 5 18 9 3 17 11 17 16
0 6 -7 8 -15 4 -8 -3 -15 -1 -15 4 0 6 8 10 18 10 14 0 15 2 2 10 -9 6 -15 27
-15 62 -1 30 -5 60 -10 67 -5 10 -4 12 3 7 7 -4 12 -2 12 3 0 6 -5 11 -11 11
-5 0 -7 5 -4 10 4 6 11 8 16 5 5 -3 6 1 3 9 -3 9 -11 13 -17 9 -6 -4 -7 -1 -1
8 14 23 16 59 2 59 -9 0 -9 3 2 10 13 9 13 10 0 10 -13 0 -13 1 0 10 12 7 12
10 1 10 -8 0 -11 6 -7 16 3 8 2 13 -2 10 -5 -3 -9 1 -9 8 0 8 7 12 16 9 9 -2
5 3 -9 12 -14 9 -18 14 -8 11 10 -3 18 2 21 15 3 13 1 17 -6 12 -18 -11 -38
-12 -31 -2 3 5 10 7 15 4 10 -7 11 2 11 55 0 19 4 40 9 46 7 8 6 15 -2 20 -7
4 -9 3 -6 -3 4 -6 0 -16 -8 -23 -13 -11 -15 -9 -13 11 2 13 -2 23 -8 22 -6 -1
-11 5 -11 12 0 11 4 12 13 4 7 -6 19 -9 26 -6 8 4 7 6 -4 6 -20 1 -25 21 -5
21 6 0 4 5 -6 11 -17 10 -16 12 4 42 16 25 17 28 2 12 -22 -23 -52 -34 -37
-13 6 7 10 36 9 63 -1 28 2 61 7 74 7 19 5 22 -7 17 -10 -3 -14 -2 -9 5 9 16
11 69 2 69 -4 0 -8 5 -8 11 0 5 4 8 8 5 5 -3 9 1 9 9 0 8 -4 15 -9 15 -4 0 -8
5 -8 11 0 5 4 8 8 5 5 -3 6 15 2 39 -6 38 -5 43 7 33 11 -9 13 -8 11 2 -2 8 2
14 7 15 6 0 16 4 24 9 10 6 12 4 7 -12 -4 -11 -2 -23 5 -27 8 -6 7 -10 -2 -16
-11 -7 -11 -9 1 -9 13 0 13 -1 0 -10 -13 -9 -13 -11 0 -20 12 -8 12 -10 1 -10
-10 0 -10 -6 4 -26 9 -15 13 -24 7 -20 -5 3 -13 -1 -16 -10 -3 -8 -2 -13 2
-10 4 2 14 1 22 -4 13 -8 13 -11 1 -22 -12 -11 -13 -10 -6 2 7 13 6 13 -6 1
-11 -10 -11 -15 -1 -18 6 -3 12 -9 12 -14 0 -6 -5 -7 -11 -3 -8 5 -8 1 0 -14
9 -18 6 -22 -27 -36 -34 -15 -21 -15 27 0 11 3 20 0 24 -9 3 -7 -1 -14 -9 -14
-7 0 -11 4 -8 9 3 4 -3 5 -13 1 -16 -6 -14 -9 9 -17 24 -9 25 -10 9 -25 -9 -9
-12 -13 -7 -8 6 4 17 7 25 7 11 0 10 -4 -5 -15 -11 -9 -13 -13 -4 -10 12 4 15
-4 14 -43 0 -27 -4 -53 -7 -60 -4 -6 -2 -14 4 -18 8 -5 9 -3 4 6 -6 9 -4 11 4
5 9 -5 10 -10 2 -18 -13 -13 -15 -31 -3 -23 5 3 9 -2 9 -10 0 -9 -6 -13 -16
-9 -11 3 -10 0 3 -10 11 -8 14 -15 8 -15 -7 0 -12 -5 -12 -11 0 -5 4 -8 9 -4
5 3 13 0 17 -6 4 -7 3 -9 -4 -5 -6 3 -13 2 -17 -4 -3 -5 -1 -10 5 -10 6 0 8
-4 5 -10 -3 -5 -8 -19 -10 -31 -3 -16 0 -19 13 -15 14 5 13 3 -2 -9 -11 -8
-15 -15 -10 -15 14 0 15 -42 1 -59 -9 -11 -9 -13 0 -8 6 4 14 3 18 -3 3 -5 1
-10 -6 -10 -8 0 -6 -7 5 -19 18 -19 14 -47 -5 -36 -5 3 -6 -1 -3 -10 5 -12 10
-13 17 -6 19 19 27 12 10 -8 -9 -11 -20 -18 -25 -15 -4 3 -5 -2 -2 -11 5 -12
9 -13 20 -4 8 7 17 9 21 5 3 -3 1 -6 -6 -6 -14 0 -11 -31 4 -42 6 -5 5 -8 -2
-8 -7 0 -13 -5 -13 -11 0 -5 6 -7 13 -3 10 6 10 4 0 -7 -18 -19 -16 -32 5 -25
11 4 8 -1 -8 -15 -14 -11 -19 -18 -12 -14 24 12 34 -6 17 -32 -10 -14 -12 -23
-7 -19 14 9 21 -15 11 -41 -7 -19 -5 -21 18 -17 23 4 25 3 13 -11 -7 -8 -10
-18 -6 -22 3 -3 6 -1 6 5 0 7 13 12 29 12 17 0 33 5 36 10 3 6 12 10 18 10 7
0 6 -4 -3 -11 -12 -9 -11 -10 8 -6 12 3 20 1 16 -4 -3 -5 0 -9 6 -9 6 0 8 -5
4 -12 -6 -10 -4 -10 7 -2 8 6 23 10 35 9 11 -1 21 4 21 11 0 9 -5 10 -19 3
-12 -6 -18 -6 -18 1 0 8 13 13 40 12 3 0 16 -3 29 -7 18 -6 22 -4 15 6 -6 10
-3 10 11 -1 17 -14 18 -13 12 5 -5 15 -1 13 18 -8 14 -15 25 -24 25 -18 0 5
-4 12 -9 16 -6 3 -9 14 -8 25 1 14 4 16 14 8 16 -13 17 -22 1 -12 -6 4 -8 3
-5 -4 4 -5 16 -8 27 -5 19 5 19 6 -3 24 -12 10 -17 18 -10 19 6 0 13 -6 16
-12 3 -10 9 -9 23 4 16 14 19 29 18 75 -1 38 -5 57 -12 55 -7 -1 -12 2 -12 8
0 9 4 11 28 10 4 0 6 -9 6 -20 -1 -21 11 -27 21 -10 3 6 1 10 -6 10 -7 0 -9 3
-6 6 3 4 1 16 -5 28 -10 19 -10 20 6 7 14 -12 16 -12 10 3 -7 19 -30 21 -37 4
-3 -7 -4 0 -3 15 2 15 9 33 16 40 12 10 12 9 2 -4 -10 -14 -9 -18 4 -23 9 -4
19 -4 22 -1 3 3 0 5 -6 5 -7 0 -12 5 -12 11 0 7 7 8 18 4 9 -4 25 -8 36 -11
10 -2 21 -6 25 -10 3 -4 -2 -4 -11 -1 -10 3 -20 2 -23 -3 -4 -6 2 -10 11 -10
16 0 16 -1 -2 -16 -10 -8 -14 -13 -8 -10 7 3 17 -1 24 -9 11 -13 10 -14 -5 -9
-15 6 -16 5 -5 -17 13 -23 12 -23 -5 -9 -17 14 -17 14 -5 -7 8 -12 19 -19 25
-15 5 3 5 -1 -2 -9 -13 -16 -12 -36 0 -56 6 -9 3 -11 -9 -6 -13 5 -15 2 -9
-17 5 -15 4 -20 -4 -16 -7 5 -8 1 -4 -10 5 -13 3 -15 -8 -9 -11 7 -12 6 -2 -6
10 -12 8 -15 -10 -16 -12 -1 -23 -7 -25 -13 -2 -5 -7 -8 -12 -5 -4 3 -10 -2
-14 -10 -3 -8 0 -17 6 -21 6 -4 8 -3 5 2 -3 6 2 15 12 21 14 9 18 8 18 -3 0
-7 -4 -11 -8 -9 -4 3 -10 -2 -13 -11 -6 -15 -9 -14 -34 1 l-27 18 20 -23 20
-23 -25 13 c-21 11 -23 11 -13 -1 10 -12 6 -14 -23 -15 -19 0 -34 4 -34 8 0 5
-4 7 -10 3 -5 -3 -7 -13 -4 -23 5 -15 4 -15 -6 1 -9 14 -9 22 2 35 10 13 8 13
-9 -2 -13 -10 -20 -24 -17 -30 3 -6 -2 -2 -10 8 -16 20 -16 19 -16 -1 0 -11
-8 -24 -17 -28 -18 -6 -29 -4 -26 5 0 3 -6 12 -15 20 -14 13 -15 12 -9 -3 4
-10 2 -17 -6 -17 -7 0 -3 -7 7 -15 11 -8 15 -15 9 -15 -7 0 -15 5 -18 10 -4 6
-10 8 -15 5 -5 -3 -20 -1 -32 6 -22 12 -23 11 -5 -8 14 -16 14 -20 2 -20 -8 0
-13 3 -11 6 2 3 -3 12 -11 20 -13 12 -14 11 -8 -10 4 -13 4 -21 0 -17 -5 4
-15 2 -23 -5 -13 -9 -14 -9 -8 1 4 7 2 12 -4 12 -6 0 -8 5 -5 10 3 6 1 10 -4
10 -6 0 -11 -6 -11 -13 0 -15 -96 -22 -105 -8 -3 5 -23 -8 -44 -30 -30 -31
-40 -36 -44 -24 -4 8 -12 15 -18 15 -8 0 -9 -4 0 -13 8 -10 7 -14 -4 -14 -8 0
-12 5 -8 10 3 5 -4 6 -18 3 -21 -6 -20 -5 4 9 22 13 31 14 43 4 11 -9 14 -9
14 0 0 7 4 10 9 6 6 -3 15 4 21 15 11 20 10 21 -12 7 -13 -8 -37 -14 -55 -13
-18 2 -30 -1 -27 -5 2 -4 -5 -10 -16 -14 -12 -4 -17 -11 -13 -18 3 -7 -4 -3
-17 8 l-23 20 13 -24 c6 -13 7 -21 2 -17 -6 3 -13 -2 -15 -11 -4 -17 -5 -17
-6 0 -1 21 -22 18 -29 -3 -3 -9 0 -10 9 -4 11 6 12 5 2 -8 -7 -8 -9 -18 -5
-22 4 -5 -2 -6 -12 -4 -15 2 -20 -3 -21 -26 -2 -27 -1 -28 11 -11 18 24 18 15
0 -20 -9 -17 -16 -22 -19 -13 -4 10 -6 10 -6 0 -1 -7 6 -15 15 -19 13 -5 13
-7 2 -14 -11 -7 -10 -11 2 -19 8 -5 10 -10 5 -10 -6 0 -17 6 -24 12 -11 11
-12 9 -3 -8 6 -11 9 -36 7 -55 -4 -26 -3 -29 4 -14 7 14 10 16 11 5 2 -8 2
-19 1 -24 -1 -5 4 -4 12 2 8 7 17 9 20 5 4 -3 28 -7 54 -9 27 -1 51 -2 56 -3
4 -1 7 -9 8 -18 0 -17 1 -17 8 0 4 10 11 18 15 17 5 -1 13 4 18 12 8 10 9 9 4
-4 -3 -10 -1 -20 4 -23 6 -4 10 1 10 9 0 8 5 18 12 22 8 5 9 2 4 -11 -5 -14
-4 -16 7 -7 10 9 19 7 37 -5 21 -15 23 -15 17 -1 -5 16 15 20 28 6 4 -3 19 -2
35 2 16 4 31 6 34 2 3 -3 6 0 6 8 0 9 3 10 13 1 8 -6 17 -8 21 -4 4 4 4 0 1
-9 -5 -12 0 -15 24 -13 17 1 31 -2 31 -8 0 -6 6 -2 14 8 8 11 12 24 8 30 -3 5
1 4 10 -2 8 -7 18 -10 22 -6 4 4 4 0 0 -10 -3 -10 -1 -17 6 -17 6 0 8 -6 4
-13 -5 -9 -4 -9 6 0 11 10 16 9 27 -5 12 -16 13 -16 6 2 -5 14 -3 17 6 11 7
-4 29 -9 49 -11 25 -2 32 0 22 6 -8 5 -18 6 -24 3 -5 -4 -6 0 -1 8 8 12 6 12
-8 0 -9 -7 -17 -9 -17 -3 0 5 -13 8 -30 7 -16 -1 -30 1 -30 6 0 5 11 7 25 5
15 -3 25 0 25 7 0 8 3 8 9 -1 4 -7 12 -12 17 -11 5 1 12 0 17 -1 12 -4 26 -7
38 -9 5 0 8 -5 5 -9 -3 -5 1 -9 9 -9 8 0 13 3 11 6 -2 3 5 15 16 26 18 19 19
19 12 1 -5 -14 -4 -17 4 -12 7 4 12 2 12 -5 0 -8 6 -6 18 4 10 10 25 17 33 17
12 0 11 2 -1 10 -8 5 -13 10 -10 11 3 0 15 2 27 3 30 3 38 12 18 20 -11 4 -14
2 -9 -6 5 -7 3 -8 -5 -4 -19 12 1 24 46 28 9 1 10 5 2 15 -9 10 -8 13 4 13 8
0 17 7 21 15 3 8 1 15 -3 15 -5 0 -12 -6 -14 -12 -4 -10 -6 -10 -6 -1 -1 7 8
17 19 23 16 8 19 18 15 42 -3 17 -9 36 -12 42 -4 6 3 3 14 -7 16 -14 20 -14
20 -2 0 8 -4 12 -9 9 -7 -5 -12 10 -9 29 0 4 -5 7 -11 7 -7 1 -2 7 12 15 22
12 17 19 -10 17 -3 0 -7 9 -7 20 -2 20 -1 20 12 2 7 -11 17 -16 21 -11 4 4 1
7 -6 7 -9 0 -7 7 6 22 15 19 16 20 2 9 -11 -8 -18 -9 -18 -3 0 6 8 16 18 21
13 8 14 11 2 11 -12 0 -11 3 3 11 19 11 23 29 6 29 -5 0 -7 -5 -3 -12 4 -7 3
-8 -4 -4 -9 5 -9 13 0 29 17 32 19 49 3 43 -16 -6 -8 24 9 36 8 5 7 8 -1 8
-15 0 -8 41 9 52 10 6 8 8 -4 8 -11 0 -15 5 -12 15 4 8 10 12 15 9 5 -3 6 2 3
10 -3 9 -9 14 -13 12 -4 -3 -7 8 -6 24 0 15 4 26 9 23 5 -3 6 0 4 8 -3 8 2 23
11 33 9 11 11 17 6 13 -6 -3 -17 -1 -25 5 -13 8 -12 9 2 5 9 -3 24 1 35 8 11
9 13 14 5 15 -8 0 -10 5 -5 13 10 16 11 77 1 71 -4 -3 -8 0 -8 7 0 8 -5 7 -17
-2 -16 -13 -17 -12 -4 3 7 10 18 15 24 11 6 -4 8 0 4 11 -4 10 -3 15 3 11 6
-3 10 -1 10 4 0 6 -5 11 -11 11 -5 0 -8 4 -4 10 3 5 13 6 23 3 16 -6 16 -6 0
11 -19 18 -25 41 -9 32 5 -4 8 2 6 11 -1 10 3 24 9 32 9 12 8 13 -3 6 -11 -6
-13 -2 -9 18 3 15 2 24 -3 22 -4 -3 -10 -1 -14 5 -3 5 1 10 10 10 13 0 14 4 5
20 -8 15 -8 20 1 20 8 0 8 4 -1 15 -11 13 -10 14 4 9 12 -5 15 -2 10 10 -3 9
-11 13 -17 9 -6 -3 -7 -1 -3 6 6 9 11 9 21 1 9 -8 12 -4 9 16 -1 15 -8 30 -14
34 -15 9 -13 20 8 45 16 19 16 19 -1 5 -17 -12 -18 -12 -15 6 1 10 8 22 13 26
6 5 5 8 -2 8 -7 0 -13 5 -13 11 0 6 -7 17 -15 25 -19 20 -19 10 1 -24 11 -18
12 -22 2 -10 -8 10 -19 14 -23 10 -5 -4 -5 -2 -2 5 4 6 0 19 -10 28 -14 14
-14 18 -2 26 9 5 10 9 2 9 -6 0 -15 -4 -18 -10 -3 -5 -12 -10 -18 -9 -9 0 -8
2 1 6 6 2 10 9 6 14 -3 5 0 9 7 9 7 0 9 3 6 6 -4 4 -14 1 -22 -6 -9 -7 -15 -9
-14 -4 5 26 -1 36 -15 25 -11 -9 -16 -9 -22 0 -4 8 -3 9 4 5 7 -4 12 -1 12 9
0 9 -4 13 -10 10 -10 -6 -14 7 -11 32 1 6 -3 14 -9 18 -5 3 -10 2 -10 -3 0
-13 -30 -11 -30 2 -1 13 -23 -23 -26 -42 -1 -6 1 -10 5 -7 4 2 8 -2 8 -10 0
-8 -4 -12 -9 -9 -4 3 -8 0 -8 -5 0 -6 4 -11 10 -11 5 0 7 -6 4 -14 -3 -8 -1
-17 5 -20 6 -4 7 -15 1 -30 -5 -15 -5 -27 3 -35 6 -6 7 -11 1 -11 -12 0 -12
-40 0 -59 6 -10 6 -12 -2 -7 -7 4 -12 2 -12 -3 0 -6 6 -11 13 -12 6 0 3 -4 -8
-9 -19 -8 -19 -9 3 -9 13 -1 20 -5 17 -11 -4 -6 -12 -7 -18 -3 -7 4 -6 0 2
-10 12 -15 11 -17 -5 -17 -16 -1 -15 -3 6 -15 14 -8 19 -14 12 -15 -7 0 -10
-5 -6 -12 4 -7 3 -8 -5 -4 -6 4 -8 12 -5 18 4 7 2 8 -4 4 -16 -10 -15 -12 10
-36 24 -22 18 -26 -15 -9 -20 9 -21 9 -4 -4 10 -8 19 -24 20 -35 0 -11 5 -19
9 -16 4 3 6 10 4 17 -1 7 -1 9 1 4 3 -4 10 -4 16 0 7 4 6 0 -1 -10 -8 -9 -10
-22 -6 -28 5 -9 2 -10 -9 -6 -12 4 -14 2 -10 -10 4 -11 2 -14 -5 -9 -27 16 -9
-4 21 -24 17 -12 24 -19 14 -16 -15 5 -17 0 -14 -29 3 -21 -1 -39 -9 -46 -15
-12 -9 -33 7 -23 5 3 7 10 4 15 -4 5 -1 9 4 9 6 0 9 -8 7 -17 -9 -40 -19 -63
-27 -63 -10 0 -8 22 3 30 4 3 -1 11 -12 17 -14 10 -19 9 -24 -2 -3 -9 0 -12 8
-9 7 3 13 -2 13 -11 0 -10 -6 -14 -15 -10 -8 3 -20 1 -26 -4 -8 -7 -12 -4 -13
12 -2 15 0 18 6 9 6 -10 10 -9 13 6 5 16 2 19 -11 14 -14 -5 -14 -4 -2 11 10
13 10 17 1 17 -9 0 -9 4 1 17 8 9 9 14 3 10 -7 -4 -15 0 -18 9 -4 9 -2 13 5 8
7 -4 9 0 5 13 -4 11 -2 33 4 48 9 23 8 26 -5 21 -12 -4 -12 -1 2 21 17 26 17
27 -1 20 -15 -6 -17 -5 -7 7 14 17 24 59 12 51 -5 -3 -11 13 -13 35 -3 31 0
40 12 40 13 0 13 2 0 9 -8 6 -19 7 -25 3 -5 -3 -5 1 2 9 6 8 14 27 17 41 4 22
1 26 -12 22 -15 -5 -14 -4 1 9 12 10 14 17 8 22 -7 4 -8 13 -2 23 9 19 4 45
-9 37 -11 -7 -7 22 5 32 4 4 5 2 1 -4 -5 -9 -2 -11 8 -7 9 3 16 10 16 16 0 5
-4 7 -10 3 -5 -3 -8 7 -7 25 1 16 7 30 12 30 6 0 3 5 -5 10 -13 9 -13 11 0 21
12 8 10 9 -7 4 -14 -4 -23 -2 -23 4 0 6 4 11 8 11 5 0 9 7 9 15 0 8 -5 11 -10
8 -6 -4 -8 0 -4 10 3 9 1 19 -5 23 -6 4 -8 3 -4 -4 3 -6 1 -14 -5 -18 -8 -5
-8 -9 1 -14 10 -6 10 -12 0 -26 -9 -16 -11 -16 -6 -2 3 10 1 20 -5 24 -6 4 -7
10 0 17 9 12 11 18 11 38 0 5 3 8 8 6 4 -3 7 10 7 29 0 21 -5 34 -13 34 -7 0
-10 5 -7 10 4 6 11 7 17 4 7 -5 8 -2 4 5 -5 7 -14 10 -20 8 -7 -3 -13 0 -13 7
0 8 10 11 26 8 25 -4 25 -4 6 11 -16 13 -18 18 -7 29 11 11 12 10 7 -7 -5 -16
-5 -17 3 -5 13 17 5 33 -10 24 -7 -5 -9 0 -6 14 7 25 -1 28 -21 10 -11 -11
-12 -10 -5 2 14 24 15 50 2 73 -10 21 -10 21 7 7 17 -14 18 -14 6 8 -6 12 -9
22 -5 22 3 0 0 8 -7 17 -10 11 -10 14 -1 9 7 -4 12 -1 12 8 0 9 -5 16 -11 16
-5 0 -7 5 -4 10 4 6 11 8 16 5 5 -3 6 1 3 9 -3 9 -10 16 -16 16 -5 0 -6 5 -3
10 4 6 10 8 15 5 4 -3 7 2 6 11 -1 8 -9 20 -17 25 -11 7 -11 9 0 9 11 0 11 3
0 17 -12 15 -12 16 1 8 13 -8 13 -6 1 8 -7 9 -17 14 -22 11 -5 -3 -9 0 -9 5 0
6 6 11 14 11 8 0 18 5 22 12 4 6 3 8 -3 5 -6 -4 -13 4 -15 18 -3 13 0 26 5 28
6 2 3 6 -7 10 -10 4 -15 3 -11 -3 3 -6 2 -10 -3 -10 -18 0 -21 29 -4 33 13 4
13 5 2 6 -8 0 -21 11 -29 22 -11 19 -11 21 1 16 8 -3 15 1 15 9 0 7 -5 10 -10
7 -6 -4 -8 0 -4 10 3 10 2 17 -3 17 -6 0 -9 6 -8 13 2 6 -3 11 -11 9 -9 -2
-12 4 -8 18 5 18 3 19 -11 8 -13 -10 -14 -10 -8 0 4 7 2 19 -4 27 -7 8 -9 15
-5 15 4 0 2 6 -4 13 -6 8 -7 18 -3 22 4 5 1 5 -6 1 -10 -6 -10 -11 -1 -22 19
-23 2 -16 -22 9 -12 12 -19 16 -15 10 4 -7 4 -13 -1 -14 -29 -3 -47 -9 -54
-21 -5 -7 -9 -8 -9 -3 0 6 5 16 12 23 14 14 3 15 -27 3 -12 -5 -26 -4 -34 3
-8 6 -12 7 -9 1 3 -5 -1 -16 -9 -24 -13 -12 -14 -11 -9 6 6 17 2 20 -26 18
-18 -1 -37 3 -41 9 -5 6 -6 2 -2 -10 5 -18 2 -21 -19 -19 -18 2 -23 -1 -19
-11 3 -8 10 -11 16 -7 6 3 7 1 3 -5 -3 -6 -15 -9 -25 -7 -10 2 -18 -3 -18 -11
0 -8 5 -14 10 -14 6 0 8 -2 5 -5 -9 -10 -38 7 -31 18 3 6 1 7 -6 3 -9 -6 -9
-11 1 -24 11 -13 10 -14 -9 -4 -17 9 -22 9 -27 -3 -3 -8 3 -19 12 -25 14 -10
15 -11 1 -7 -9 3 -21 1 -27 -5 -12 -12 -31 18 -27 43 2 10 -5 15 -19 15 -15
-1 -20 4 -19 19 1 11 0 14 -3 8 -3 -7 -10 -13 -15 -13 -6 0 -7 5 -4 10 3 6 1
10 -4 10 -6 0 -11 7 -11 16 0 9 -5 12 -11 8 -8 -5 -10 3 -7 24 5 34 -18 53
-35 30 -6 -9 -7 -6 -4 9 3 13 0 26 -5 30 -7 3 -8 1 -4 -5 4 -7 2 -12 -3 -12
-11 0 -15 15 -11 35 1 6 -4 5 -10 -1 -9 -9 -9 -18 0 -35 11 -24 11 -24 -9 1
-13 17 -16 28 -10 36 7 8 6 15 -2 20 -7 4 -9 3 -5 -4z m-34 -46 c0 -2 -8 -10
-17 -17 -16 -13 -17 -12 -4 4 13 16 21 21 21 13z m434 -84 c2 -4 -4 -8 -14 -8
-10 0 -16 4 -14 8 3 4 9 8 14 8 5 0 11 -4 14 -8z m-224 -84 c0 -7 -5 -6 -13 1
-8 6 -18 7 -22 3 -5 -4 -5 -2 -1 5 8 14 36 6 36 -9z m477 -19 c2 -16 0 -17
-18 -1 -10 9 -19 17 -19 17 0 0 8 1 18 1 10 0 19 -8 19 -17z m-1144 -6 c-3 -7
-6 -13 -8 -13 -2 0 -5 6 -8 13 -3 8 1 14 8 14 7 0 11 -6 8 -14z m1194 -145
c-3 -8 -6 -5 -6 6 -1 11 2 17 5 13 3 -3 4 -12 1 -19z m-407 -466 c0 -4 -10 -9
-22 -9 -18 -2 -20 0 -8 7 18 12 30 13 30 2z m447 -27 c0 -8 -4 -12 -9 -9 -5 3
-6 10 -3 15 9 13 12 11 12 -6z m-1491 -150 c10 -8 15 -15 9 -15 -5 0 -3 -5 5
-11 13 -10 13 -10 0 -6 -10 3 -16 -2 -16 -14 0 -13 4 -15 12 -8 8 6 14 6 18 1
3 -6 -1 -15 -9 -22 -10 -8 -12 -17 -6 -24 5 -6 8 -22 7 -36 -1 -14 2 -31 7
-37 6 -8 6 -13 0 -13 -17 0 -7 -53 13 -61 16 -6 16 -8 2 -8 -30 -2 -31 -51 -1
-51 8 0 11 5 7 12 -4 7 -3 8 5 4 6 -4 9 -12 5 -17 -11 -18 -15 -61 -4 -54 6 4
7 -1 3 -11 -4 -12 -3 -15 6 -10 10 7 10 4 0 -12 -7 -11 -20 -18 -28 -17 -9 2
-20 4 -25 4 -4 1 -6 10 -3 21 3 11 1 18 -4 14 -5 -3 -9 -11 -9 -18 0 -7 -6
-13 -13 -13 -8 0 -14 6 -14 13 0 7 4 11 9 8 4 -3 8 0 8 5 0 6 -4 11 -10 11 -5
0 -10 7 -10 15 0 8 5 15 11 15 5 0 7 -5 3 -12 -5 -7 -3 -8 6 -3 10 6 10 10 -2
19 -8 6 -13 17 -10 25 3 9 0 11 -8 6 -9 -5 -11 -4 -6 4 4 6 11 9 15 7 4 -3 8
2 8 10 0 8 -6 13 -12 10 -8 -3 -11 7 -10 27 2 18 -2 38 -8 45 -7 9 -6 11 8 6
15 -6 16 -4 6 14 -14 26 -14 35 -1 27 6 -3 7 1 4 9 -3 9 -10 16 -16 16 -5 0
-6 5 -3 10 4 6 11 7 17 4 7 -5 8 -2 2 7 -5 8 -9 21 -9 30 0 22 -35 60 -48 52
-6 -3 -7 -1 -3 6 4 6 13 8 19 4 7 -4 21 -6 32 -4 16 3 17 1 6 -13 -9 -11 -10
-16 -2 -16 6 0 11 3 12 8 0 4 2 15 4 25 3 14 -1 17 -18 12 -17 -5 -19 -4 -7 4
20 14 23 14 46 -4z m1629 5 c-3 -5 -12 -10 -18 -10 -7 0 -6 4 3 10 19 12 23
12 15 0z m-110 -9 c3 -5 2 -12 -3 -15 -5 -3 -9 1 -9 9 0 17 3 19 12 6z m-1576
-57 c4 3 7 -5 7 -18 0 -15 -6 -22 -19 -22 -17 0 -17 1 -2 12 10 8 12 14 6 19
-6 3 -11 12 -10 18 0 9 2 8 6 -1 2 -6 8 -10 12 -8z m1652 -147 c-10 -9 -11 -8
-5 6 3 10 9 15 12 12 3 -3 0 -11 -7 -18z m-1130 -114 c13 -15 12 -15 -8 -4
-24 12 -29 21 -14 21 5 0 15 -7 22 -17z m570 -80 c12 -16 12 -17 -2 -6 -9 7
-20 9 -24 5 -5 -4 -5 -1 -1 6 9 16 11 15 27 -5z m-1371 -73 c0 -5 -2 -10 -4
-10 -3 0 -8 5 -11 10 -3 6 -1 10 4 10 6 0 11 -4 11 -10z m1970 4 c0 -8 -19
-13 -24 -6 -3 5 1 9 9 9 8 0 15 -2 15 -3z m-1150 -60 c0 -8 -19 -13 -24 -6 -3
5 1 9 9 9 8 0 15 -2 15 -3z m-780 -38 c0 -2 -6 -9 -14 -15 -11 -9 -16 -9 -22
0 -4 7 -3 9 4 5 6 -3 13 -2 17 4 6 10 15 14 15 6z m1455 -26 c3 -5 1 -10 -4
-10 -6 0 -11 5 -11 10 0 6 2 10 4 10 3 0 8 -4 11 -10z m-1458 -33 c1 -11 1
-18 0 -16 -2 2 -8 11 -15 20 -9 12 -9 16 1 16 7 0 14 -9 14 -20z m883 19 c0
-2 -8 -10 -17 -17 -16 -13 -17 -12 -4 4 13 16 21 21 21 13z m1186 -35 c1 -12
-3 -24 -8 -27 -4 -3 -6 -10 -3 -15 4 -5 2 -9 -4 -9 -13 0 -10 43 4 53 6 4 5
11 -5 18 -13 9 -13 10 0 6 8 -2 16 -14 16 -26z m-142 -10 c3 -5 -1 -11 -9 -14
-9 -4 -12 -1 -8 9 6 16 10 17 17 5z m-1044 -35 c0 -11 -19 -15 -25 -6 -3 5 1
10 9 10 9 0 16 -2 16 -4z m-475 -66 c3 -5 1 -10 -6 -10 -9 0 -9 -3 0 -14 9
-11 9 -16 0 -22 -7 -4 -9 -3 -6 3 4 6 0 16 -8 23 -8 7 -12 16 -9 21 7 12 21
11 29 -1z m-379 -86 c1 -9 0 -13 -4 -10 -3 4 -7 14 -8 22 -1 9 0 13 4 10 3 -4
7 -14 8 -22z m324 -16 c0 -4 -5 -8 -11 -8 -5 0 -7 -5 -3 -12 4 -7 3 -8 -5 -4
-6 4 -9 11 -6 16 3 4 -1 10 -7 13 -7 3 -3 4 10 4 12 -1 22 -5 22 -9z m1479
-24 c-6 -8 -15 -12 -18 -8 -3 4 0 9 7 11 6 3 9 10 6 15 -4 7 -2 8 5 4 9 -6 9
-11 0 -22z m-1773 -49 c-1 -8 -5 -17 -8 -21 -5 -4 -4 16 1 34 3 9 9 -1 7 -13z
m107 -75 c10 -12 9 -12 -4 -2 -9 6 -18 9 -21 6 -3 -3 -9 -1 -12 4 -9 15 22 8
37 -8z m1864 14 c-3 -3 -12 -4 -19 -1 -8 3 -5 6 6 6 11 1 17 -2 13 -5z m-947
-43 c0 -5 -7 -12 -16 -15 -14 -5 -15 -4 -4 9 14 17 20 19 20 6z m-615 -51 c3
0 14 -7 22 -16 13 -13 17 -13 24 -2 7 11 9 11 9 0 0 -8 5 -10 13 -6 7 4 9 3 4
-2 -22 -24 -72 -1 -102 46 -6 9 -3 8 7 -2 9 -10 19 -18 23 -18z m189 5 c3 3 1
-1 -4 -8 -6 -6 -15 -13 -20 -13 -6 -1 -14 -2 -20 -3 -5 0 -9 -6 -7 -12 1 -6
-4 -14 -11 -16 -10 -4 -10 1 -1 21 7 14 17 24 23 23 6 -1 10 4 8 12 -2 11 0
12 11 3 8 -7 17 -10 21 -7z m-69 -15 c-3 -5 -12 -10 -18 -10 -7 0 -6 4 3 10
19 12 23 12 15 0z m786 -7 c12 -16 12 -17 -2 -6 -9 7 -19 10 -22 6 -4 -3 -7
-1 -7 5 0 17 16 15 31 -5z m619 -173 c0 -5 -5 -10 -11 -10 -5 0 -7 5 -4 10 3
6 8 10 11 10 2 0 4 -4 4 -10z m-417 -143 c3 -8 -3 -13 -18 -13 -13 0 -21 4
-19 8 3 5 10 6 15 3 5 -4 9 -1 9 4 0 15 7 14 13 -2z m214 -10 c7 0 10 -4 7 -9
-3 -4 -15 -3 -27 3 -30 16 -37 24 -12 14 11 -4 25 -8 32 -8z m78 3 c-3 -5 -10
-10 -16 -10 -5 0 -9 5 -9 10 0 6 7 10 16 10 8 0 12 -4 9 -10z"/>
<path d="M570 1321 c0 -6 4 -13 10 -16 6 -3 7 1 4 9 -7 18 -14 21 -14 7z"/>
<path d="M620 1230 c-8 -5 -12 -11 -10 -14 3 -2 14 2 24 10 22 15 10 19 -14 4z"/>
<path d="M630 1186 c0 -2 8 -10 18 -17 15 -13 16 -12 3 4 -13 16 -21 21 -21
13z"/>
<path d="M1065 2441 c-3 -5 -2 -12 3 -15 5 -3 9 1 9 9 0 17 -3 19 -12 6z"/>
<path d="M1562 2377 c-6 -7 -7 -18 -3 -26 6 -9 11 -10 15 -2 4 6 2 11 -5 11
-8 0 -8 4 1 15 7 8 10 15 7 15 -2 0 -9 -6 -15 -13z"/>
<path d="M586 2252 c-3 -5 1 -9 9 -9 8 0 12 4 9 9 -3 4 -7 8 -9 8 -2 0 -6 -4
-9 -8z"/>
<path d="M556 2192 c-3 -5 1 -9 9 -9 8 0 12 4 9 9 -3 4 -7 8 -9 8 -2 0 -6 -4
-9 -8z"/>
<path d="M490 2096 c0 -2 7 -7 16 -10 8 -3 12 -2 9 4 -6 10 -25 14 -25 6z"/>
<path d="M2096 1882 c-3 -5 1 -9 9 -9 8 0 12 4 9 9 -3 4 -7 8 -9 8 -2 0 -6 -4
-9 -8z"/>
<path d="M1625 1460 c-3 -6 1 -7 9 -4 18 7 21 14 7 14 -6 0 -13 -4 -16 -10z"/>
<path d="M1653 1395 c0 -8 4 -12 9 -9 4 3 8 9 8 15 0 5 -4 9 -8 9 -5 0 -9 -7
-9 -15z"/>
<path d="M1626 1373 c-6 -14 -5 -15 5 -6 7 7 10 15 7 18 -3 3 -9 -2 -12 -12z"/>
<path d="M1056 1365 c-3 -8 -1 -15 4 -15 6 0 10 7 10 15 0 8 -2 15 -4 15 -2 0
-6 -7 -10 -15z"/>
<path d="M1646 1322 c-3 -5 1 -9 9 -9 8 0 12 4 9 9 -3 4 -7 8 -9 8 -2 0 -6 -4
-9 -8z"/>
<path d="M1083 1125 c0 -8 4 -15 9 -15 4 0 8 4 8 9 0 6 -4 12 -8 15 -5 3 -9
-1 -9 -9z"/>
<path d="M245 1120 c3 -5 8 -10 11 -10 2 0 4 5 4 10 0 6 -5 10 -11 10 -5 0 -7
-4 -4 -10z"/>
<path d="M655 1080 c3 -5 8 -10 11 -10 2 0 4 5 4 10 0 6 -5 10 -11 10 -5 0 -7
-4 -4 -10z"/>
<path d="M2180 1051 c0 -6 4 -13 10 -16 6 -3 7 1 4 9 -7 18 -14 21 -14 7z"/>
<path d="M2178 1018 c5 -5 16 -8 23 -6 8 3 3 7 -10 11 -17 4 -21 3 -13 -5z"/>
<path d="M1080 966 c0 -2 7 -9 15 -16 13 -11 14 -10 9 4 -5 14 -24 23 -24 12z"/>
<path d="M1716 942 c-3 -5 1 -9 9 -9 8 0 12 4 9 9 -3 4 -7 8 -9 8 -2 0 -6 -4
-9 -8z"/>
<path d="M1130 900 c0 -5 5 -10 11 -10 5 0 7 5 4 10 -3 6 -8 10 -11 10 -2 0
-4 -4 -4 -10z"/>
<path d="M1729 827 c5 -5 7 -17 4 -26 -4 -9 -3 -13 1 -10 14 13 14 46 0 46 -9
0 -11 -4 -5 -10z"/>
<path d="M2356 798 c3 -5 10 -6 15 -3 13 9 11 12 -6 12 -8 0 -12 -4 -9 -9z"/>
<path d="M1153 755 c0 -8 4 -12 9 -9 4 3 8 9 8 15 0 5 -4 9 -8 9 -5 0 -9 -7
-9 -15z"/>
<path d="M2345 760 c-3 -5 -1 -10 4 -10 6 0 11 5 11 10 0 6 -2 10 -4 10 -3 0
-8 -4 -11 -10z"/>
<path d="M1111 746 c-15 -17 -1 -28 19 -15 11 6 12 9 2 9 -7 0 -10 5 -7 10 9
15 -1 12 -14 -4z"/>
<path d="M1176 744 c-5 -14 -4 -15 9 -4 17 14 19 20 6 20 -5 0 -12 -7 -15 -16z"/>
<path d="M2169 758 c-7 -23 -4 -35 7 -35 10 0 11 4 3 13 -7 8 -6 14 3 17 10 4
10 6 1 6 -7 1 -13 0 -14 -1z"/>
<path d="M630 738 c0 -4 7 -8 15 -8 8 0 15 4 15 8 0 5 -7 9 -15 9 -8 0 -15 -4
-15 -9z"/>
<path d="M705 719 c-4 -6 -5 -12 -2 -15 2 -3 7 2 10 11 7 17 1 20 -8 4z"/>
<path d="M1123 703 c9 -2 14 -9 11 -15 -4 -7 -2 -8 5 -4 15 10 4 26 -17 25
-15 -1 -15 -2 1 -6z"/>
<path d="M1675 680 c3 -5 8 -10 11 -10 2 0 4 5 4 10 0 6 -5 10 -11 10 -5 0 -7
-4 -4 -10z"/>
<path d="M1856 602 c-3 -5 1 -9 9 -9 8 0 12 4 9 9 -3 4 -7 8 -9 8 -2 0 -6 -4
-9 -8z"/>
<path d="M1130 586 c0 -2 7 -7 16 -10 8 -3 12 -2 9 4 -6 10 -25 14 -25 6z"/>
<path d="M1948 560 c17 -20 15 -30 -5 -24 -14 5 -15 4 -4 -4 7 -5 10 -16 7
-23 -4 -8 0 -5 8 5 20 25 20 31 -1 47 -15 11 -16 11 -5 -1z"/>
<path d="M2067 549 c7 -7 15 -10 18 -7 3 3 -2 9 -12 12 -14 6 -15 5 -6 -5z"/>
<path d="M1887 544 c-3 -3 -3 -13 0 -22 5 -12 2 -14 -13 -8 -14 5 -16 4 -7 -5
15 -15 32 -4 30 21 -1 22 -1 22 -10 14z"/>
<path d="M1500 499 c-7 -11 -9 -23 -6 -27 3 -3 6 0 6 6 0 7 8 12 18 13 10 0
12 3 4 6 -6 2 -10 9 -6 14 3 5 3 9 0 9 -3 0 -10 -9 -16 -21z"/>
<path d="M1573 485 c0 -8 4 -15 9 -15 4 0 8 4 8 9 0 6 -4 12 -8 15 -5 3 -9 -1
-9 -9z"/>
<path d="M1730 496 c0 -2 7 -7 16 -10 8 -3 12 -2 9 4 -6 10 -25 14 -25 6z"/>
<path d="M1535 480 c-3 -5 -1 -10 4 -10 6 0 11 5 11 10 0 6 -2 10 -4 10 -3 0
-8 -4 -11 -10z"/>
<path d="M993 455 c-3 -9 -3 -19 1 -22 3 -4 6 1 6 11 0 10 5 14 12 10 7 -4 8
-3 4 4 -10 16 -15 15 -23 -3z"/>
<path d="M1470 460 c0 -5 5 -10 11 -10 5 0 7 5 4 10 -3 6 -8 10 -11 10 -2 0
-4 -4 -4 -10z"/>
<path d="M838 403 c7 -3 16 -2 19 1 4 3 -2 6 -13 5 -11 0 -14 -3 -6 -6z"/>
<path d="M1367 259 c7 -7 15 -10 18 -7 3 3 -2 9 -12 12 -14 6 -15 5 -6 -5z"/>
<path d="M1355 201 c-3 -5 -2 -12 3 -15 5 -3 9 1 9 9 0 17 -3 19 -12 6z"/>
<path d="M1420 137 c0 -2 6 -10 14 -16 11 -9 16 -9 22 1 4 7 4 10 -1 6 -4 -4
-14 -3 -22 3 -7 6 -13 9 -13 6z"/>
<path d="M1510 120 c0 -5 5 -10 11 -10 5 0 7 5 4 10 -3 6 -8 10 -11 10 -2 0
-4 -4 -4 -10z"/>
<path d="M1570 121 c0 -6 4 -13 10 -16 6 -3 7 1 4 9 -7 18 -14 21 -14 7z"/>
<path d="M1651 113 c7 -12 15 -20 18 -17 3 2 -3 12 -13 22 -17 16 -18 16 -5
-5z"/>
<path d="M1773 111 c0 -11 5 -18 9 -15 4 3 5 11 1 19 -7 21 -12 19 -10 -4z"/>
<path d="M1795 120 c3 -5 8 -10 11 -10 2 0 4 5 4 10 0 6 -5 10 -11 10 -5 0 -7
-4 -4 -10z"/>
<path d="M1907 111 c-3 -13 -1 -18 9 -14 7 2 10 11 7 19 -7 19 -10 18 -16 -5z"/>
<path d="M1708 103 c6 -2 18 -2 25 0 6 3 1 5 -13 5 -14 0 -19 -2 -12 -5z"/>
</g>
</svg>
